<?xml version="1.0" standalone="no"?><!DOCTYPE svg PUBLIC "-//W3C//DTD SVG 1.1//EN" "http://www.w3.org/Graphics/SVG/1.1/DTD/svg11.dtd"><svg t="1718250291106" class="icon" viewBox="0 0 1024 1024" version="1.1" xmlns="http://www.w3.org/2000/svg" p-id="19223" xmlns:xlink="http://www.w3.org/1999/xlink" width="200" height="200"><path d="M916.48 888.32h-54.8352V343.808c0-33.792-27.648-61.44-61.44-61.44h-252.416V156.16c0-33.792-27.648-61.44-61.44-61.44H223.7952c-33.792 0-61.44 27.648-61.44 61.44v732.16H107.52c-11.264 0-20.48 9.216-20.48 20.48s9.216 20.48 20.48 20.48h808.96c11.264 0 20.48-9.216 20.48-20.48s-9.216-20.48-20.48-20.48z m-713.1648 0v-732.16c0-11.1104 9.3696-20.48 20.48-20.48h262.5536c11.1104 0 20.48 9.3696 20.48 20.48v732.16H203.3152z m344.8832 0V323.328h252.0064c11.1104 0 20.48 9.3696 20.48 20.48V888.32h-272.4864z" fill="#1296db" p-id="19224"></path><path d="M450.56 286.72H256c-11.264 0-20.48-9.216-20.48-20.48s9.216-20.48 20.48-20.48h194.56c11.264 0 20.48 9.216 20.48 20.48s-9.216 20.48-20.48 20.48zM450.56 450.56H256c-11.264 0-20.48-9.216-20.48-20.48s9.216-20.48 20.48-20.48h194.56c11.264 0 20.48 9.216 20.48 20.48s-9.216 20.48-20.48 20.48zM450.56 614.4H256c-11.264 0-20.48-9.216-20.48-20.48s9.216-20.48 20.48-20.48h194.56c11.264 0 20.48 9.216 20.48 20.48s-9.216 20.48-20.48 20.48zM783.36 506.88h-194.56c-11.264 0-20.48-9.216-20.48-20.48s9.216-20.48 20.48-20.48h194.56c11.264 0 20.48 9.216 20.48 20.48s-9.216 20.48-20.48 20.48zM783.36 716.8h-194.56c-11.264 0-20.48-9.216-20.48-20.48s9.216-20.48 20.48-20.48h194.56c11.264 0 20.48 9.216 20.48 20.48s-9.216 20.48-20.48 20.48z" fill="#1296db" p-id="19225"></path></svg>