<?xml version="1.0" standalone="no"?><!DOCTYPE svg PUBLIC "-//W3C//DTD SVG 1.1//EN" "http://www.w3.org/Graphics/SVG/1.1/DTD/svg11.dtd"><svg t="1718603660635" class="icon" viewBox="0 0 1024 1024" version="1.1" xmlns="http://www.w3.org/2000/svg" p-id="8650" xmlns:xlink="http://www.w3.org/1999/xlink" width="200" height="200"><path d="M1024 1024H716.8V716.8h307.2v307.2z m-256-51.2h204.8v-204.8h-204.8z m-102.4 51.2H358.4V716.8h307.2v307.2z m-256-51.2h204.8v-204.8h-204.8z m-102.4 51.2H0V716.8h307.2v307.2zM51.2 972.8h204.8v-204.8H51.2z m793.6-256v-204.8H537.6v204.8h-51.2v-204.8H179.2v204.8H128V460.8h358.4v-153.6h-128V0h307.2v307.2h-128v153.6h358.4v256zM409.6 256h204.8V51.2h-204.8z" fill="#bfbfbf" p-id="8651"></path></svg>